<svg width="1327" height="1192" viewBox="0 0 1327 1192" fill="none" xmlns="http://www.w3.org/2000/svg">
<g clip-path="url(#clip0)">
<path d="M370.957 1115.33C492.052 1023.64 722.958 889.105 943.889 796.163C947.804 792.33 951.785 788.467 955.832 784.574C1046.35 697.042 1167.21 587.839 1181.76 468.445C1196.1 348.79 1104.14 218.683 991.649 148.412C879.154 78.3866 746.129 67.9197 612.852 67.6277C479.574 67.3356 346.058 77.0495 279.623 156.22C213.497 235.16 214.452 383.772 204.42 519.365C194.387 654.959 173.141 777.749 205.375 892.701C231.722 987.303 294.461 1076.94 370.957 1115.33Z" fill="#D1D1FF" fill-opacity="0.5"/>
<path d="M1027.04 762.994C1015.31 758.599 976.924 703.052 976.924 637.13C976.924 560.542 1050.99 415.572 1058.03 363.929C1062.51 331.084 1082.73 41.714 1236.28 41.714C1320.02 41.714 1327 220.789 1327 300.882C1327 487.98 1078.29 647.351 1078.29 744.535C1061.63 752.008 1044.5 758.177 1027.04 762.994V762.994Z" fill="#9FE2E9"/>
<path d="M1045.93 756.047C1045.93 606.006 1148.29 332.636 1238.34 236.436" stroke="#56CAD8" stroke-width="4" stroke-miterlimit="10" stroke-linecap="round"/>
<path d="M454.816 1056.54C446.975 1053.99 425.659 1024.27 425.659 985.966C425.659 949.078 435.13 895.283 435.13 845.377C435.13 817.619 425.659 807.782 425.659 774.752C425.659 722.11 471.27 706.08 487.26 706.08C510.797 706.08 523.387 728.105 523.387 739.77C523.387 756.047 519.171 768.405 519.171 786.418C519.171 821.631 530.412 826.042 529.232 856.382C525.719 945.082 492.052 1031.8 462.46 1051.47L454.816 1056.54Z" fill="#56CAD8"/>
<path d="M454.816 1056.54C464.427 1047.48 410.61 760.674 363.931 709.922C313.15 654.759 271.403 625.556 257.618 607.451C233.169 575.343 217.6 454.258 109.98 454.258C81.5122 454.258 14.4308 480.003 2.36068 588.961C-1.58776 624.726 -8.76803 679.443 59.2829 758.737C105.119 812.163 162.448 793.765 218.485 851.648C258.827 893.316 253.178 956.164 290.85 1009.27C320.99 1051.69 399.242 1108.91 454.816 1056.54Z" fill="#9FE2E9"/>
<path d="M441.607 1063.38C441.607 991.407 234.026 666.548 150.968 620.085" stroke="#56CAD8" stroke-width="4" stroke-miterlimit="10" stroke-linecap="round"/>
<path d="M454.816 1056.54C452.75 1039.48 444.038 894.546 468.727 841.735" stroke="#74D5DE" stroke-width="4" stroke-linecap="round" stroke-linejoin="round"/>
<path d="M290.864 1189.63C352.985 1092.6 907.917 761.565 1241.29 700.408" stroke="#6D6D6D" stroke-width="3" stroke-miterlimit="10" stroke-linecap="round"/>
<path d="M770.888 173.573H636.093C626.78 173.573 619.231 181.83 619.231 192.017V497.848C619.231 508.034 626.78 516.291 636.093 516.291H770.888C780.2 516.291 787.75 508.034 787.75 497.848V192.017C787.75 181.83 780.2 173.573 770.888 173.573Z" fill="#526BAC"/>
<path d="M633.718 1076.65V1116.61H534.515V1099.7L595.976 1068.83L633.718 1076.65Z" fill="#5F3F79"/>
<path d="M848.915 1038.33C853.932 1050.63 865.777 1082.49 865.777 1082.49L816.274 1116.53H771.422L766.167 1097.72L822.513 1050.55L848.915 1038.33Z" fill="#5F3F79"/>
<path d="M773.085 92.2507C773.085 92.2507 767.401 171.428 600.985 192.956C600.985 192.956 579.273 175.322 592.15 157.527C605.027 139.732 619.281 133.187 607.118 121.127C594.955 109.067 577.963 84.0708 602.509 61.0334C627.056 37.9959 683.166 7.46337 723.926 29.7646C764.685 52.0658 714.7 92.9575 773.085 92.2507Z" fill="#703A2E"/>
<path d="M592.916 193C592.916 193 571.204 175.367 584.081 157.579C596.958 139.791 609.791 133.238 597.621 121.178C585.45 109.118 572.89 80.1466 600.61 61.0481C632.799 38.8721 666.63 28.7927 706.403 44.1142" stroke="#603725" stroke-width="4" stroke-miterlimit="10"/>
<path d="M646.983 5.16501C641.503 -3.07327 626.032 -1.21351 612.43 9.49934C607.282 13.4719 602.907 18.524 599.559 24.3621C599.116 24.1463 598.639 24.0263 598.154 24.0086C591.55 24.0086 481.766 88.2395 482.806 117.873C483.846 147.506 520.675 195.03 533.532 204.144C533.532 204.144 591.55 174.511 588.431 164.997C585.311 155.483 551.897 125.035 546.037 119.01C552.923 115.075 608.032 55.3479 614.257 48.5851C620.791 47.0562 626.948 44.011 632.313 39.6551C645.887 28.9269 652.477 13.4955 646.983 5.16501Z" fill="#E7BF90"/>
<path d="M615.451 256.14C628.098 245.012 607.161 151.701 584.721 149.411C562.281 147.121 523.148 193.369 524.721 206.495C526.295 219.621 583.498 284.113 615.451 256.14Z" fill="#FF6AA6"/>
<path d="M565.246 479.542C565.246 494.912 572.271 1026.71 584.918 1072.82C596.159 1078.97 625.667 1080.51 635.503 1075.9C645.339 1071.28 708.106 487.965 708.106 462.358C708.106 436.752 565.246 479.542 565.246 479.542Z" fill="#6562CF"/>
<path d="M817.243 1056.21C803.824 1033.15 629.095 585.456 615.395 475.069C629.741 462.912 736.504 443.53 745.146 465.601C753.787 487.673 857.557 1033.35 854.002 1040.44C850.447 1047.52 827.332 1058.57 817.243 1056.21Z" fill="#8382D8"/>
<path d="M678.036 182.902C768.668 182.902 763.047 457.256 743.375 474.163C723.703 491.069 569.84 491.838 560.004 479.542C550.168 467.246 526.927 182.902 678.036 182.902Z" fill="#FF287E"/>
<path d="M713.46 124.865C719.567 124.865 724.518 119.45 724.518 112.769C724.518 106.089 719.567 100.673 713.46 100.673C707.352 100.673 702.401 106.089 702.401 112.769C702.401 119.45 707.352 124.865 713.46 124.865Z" fill="#E7BF90"/>
<path d="M698.355 204.42C696.584 211.106 659.418 202.991 660.135 195.429L666.486 128.262L711.268 138.806C711.268 138.806 700.153 197.765 698.355 204.42Z" fill="#E2AD6E"/>
<path d="M716.485 81.1906C701.756 64.254 679.531 52.2735 659.297 58.8164C628.185 68.8893 624.051 120.778 663.997 167.879C668.733 173.46 714.706 155.988 719.362 118.906C721.796 99.5357 716.485 81.1906 716.485 81.1906Z" fill="#E7BF90"/>
<path d="M951.505 240.447L794.34 1092.66" stroke="#333333" stroke-width="7" stroke-miterlimit="10" stroke-linecap="round"/>
<path d="M926.296 475.607C922.109 470.976 916.707 467.887 910.84 466.769C892.095 433.678 828.4 331.683 800.312 294.626C780.064 310.534 755.347 338.354 755.347 338.354C765.675 351.019 843.028 451.123 884.184 490.378C884.161 494.49 884.895 498.565 886.344 502.36C887.792 506.155 889.925 509.591 892.615 512.464C903.027 523.869 919.018 524.852 928.32 514.693C937.622 504.533 936.709 487.012 926.296 475.607Z" fill="#E7BF90"/>
<path d="M713.629 227.859C749.98 198.303 809.909 269.773 808.925 288.571C807.942 307.368 761.881 349.051 746.129 349.097C726.893 349.128 682.687 253.02 713.629 227.859Z" fill="#FF6AA6"/>
</g>
<defs>
<clipPath id="clip0">
<rect width="1327" height="1192" fill="white"/>
</clipPath>
</defs>
</svg>
