<svg width="728" height="1264" viewBox="0 0 728 1264" fill="none" xmlns="http://www.w3.org/2000/svg">
<g clip-path="url(#clip0)">
<path d="M531.541 870.67V1043.36C531.541 1069.51 538.23 1095.22 550.973 1118.05C563.715 1140.88 582.087 1160.07 604.341 1173.8L668.041 1213.09" stroke="#6562CF" stroke-width="6" stroke-miterlimit="10" stroke-linecap="round"/>
<path d="M497 870.67V1043.36C497 1069.51 490.312 1095.22 477.572 1118.05C464.831 1140.88 446.462 1160.07 424.21 1173.8L360.5 1213.09" stroke="#6562CF" stroke-width="6" stroke-miterlimit="10" stroke-linecap="round"/>
<path d="M531.9 870.66H493.45C484.963 870.66 476.824 867.289 470.823 861.287C464.822 855.286 461.45 847.147 461.45 838.66H563.93C563.93 842.865 563.101 847.028 561.491 850.913C559.881 854.797 557.522 858.326 554.547 861.298C551.572 864.27 548.041 866.626 544.155 868.233C540.269 869.839 536.105 870.664 531.9 870.66Z" fill="white" stroke="#6562CF" stroke-width="5" stroke-miterlimit="10"/>
<path d="M573.68 783.36H604.68L616.76 716.03H585.76L573.68 783.36Z" fill="white" stroke="#6562CF" stroke-width="5" stroke-miterlimit="10"/>
<path d="M334.771 795.7V821.79C334.771 825.24 344.221 828.47 360.651 831.22C392.211 836.51 449.51 840.05 514.97 840.05C614.48 840.05 695.16 831.87 695.16 821.79V795.7C695.16 800.8 674.441 805.43 641.051 808.7C608.551 812 564.051 814 515.001 814C465.951 814 421.411 812 388.911 808.78C378.071 807.7 368.571 806.49 360.681 805.17C344.221 802.38 334.771 799.15 334.771 795.7Z" fill="#D1D1FF" stroke="#6562CF" stroke-width="5" stroke-miterlimit="10"/>
<path d="M334.771 795.7C334.771 799.15 344.221 802.38 360.651 805.13C368.541 806.45 378.041 807.66 388.881 808.74C421.381 812 465.881 814 515.001 814C564.121 814 608.581 812 641.081 808.78C674.471 805.47 695.191 800.84 695.191 795.78C695.191 785.69 614.511 777.5 515.001 777.5C435.881 777.5 368.671 782.67 344.441 789.87C338.161 791.64 334.771 793.63 334.771 795.7Z" fill="white" stroke="#6562CF" stroke-width="5" stroke-miterlimit="10"/>
<path d="M589.11 718.24H624.63C656.04 718.24 689.51 678.01 699.39 628.37L721.93 515.11C731.81 465.47 714.36 425.24 682.93 425.24H647.43C616.03 425.24 582.56 465.47 572.68 515.11L550.13 628.37C540.25 678 557.7 718.24 589.11 718.24Z" fill="#D1D1FF" stroke="#6562CF" stroke-width="5" stroke-miterlimit="10"/>
<path d="M568.11 718.24H603.63C635.04 718.24 668.51 678.01 678.39 628.37L700.93 515.11C710.81 465.47 693.36 425.24 661.93 425.24H626.43C595.03 425.24 561.56 465.47 551.68 515.11L529.13 628.37C519.25 678 536.7 718.24 568.11 718.24Z" fill="white" stroke="#6562CF" stroke-width="5" stroke-miterlimit="10"/>
<path d="M670.89 1260.67C686.647 1260.67 699.42 1247.9 699.42 1232.14C699.42 1216.38 686.647 1203.61 670.89 1203.61C655.134 1203.61 642.36 1216.38 642.36 1232.14C642.36 1247.9 655.134 1260.67 670.89 1260.67Z" fill="#D1D1FF" stroke="#6562CF" stroke-width="5" stroke-miterlimit="10"/>
<path d="M359.89 1260.67C375.647 1260.67 388.42 1247.9 388.42 1232.14C388.42 1216.38 375.647 1203.61 359.89 1203.61C344.134 1203.61 331.36 1216.38 331.36 1232.14C331.36 1247.9 344.134 1260.67 359.89 1260.67Z" fill="#D1D1FF" stroke="#6562CF" stroke-width="5" stroke-miterlimit="10"/>
<path d="M472.331 1126.81C472.331 1126.81 509.261 1099.7 556.261 1126.81" stroke="#6562CF" stroke-width="5" stroke-miterlimit="10"/>
<path d="M609 712.73C558 785 353.72 740.8 353.72 740.8C352.37 712.72 354.42 639.04 304.59 597.02L419.8 600.02C510.8 608.53 578.2 590.34 599.17 580.96C617.17 607.14 645 661.7 609 712.73Z" fill="#6562CF"/>
<path d="M274.29 601.47C274.29 601.47 133.29 610.06 121.22 640.16C83.5002 734 229.78 1029.63 239 1102.3C246.72 1163.44 196.19 1196.14 196.19 1196.14C196.19 1196.14 218.93 1211.77 250.84 1203.14C257.67 1201.29 264 1192.71 276.75 1182.36C286.23 1174.67 309.58 1160.83 309.18 1149.15C308.52 1129.91 280.48 1115.06 281.27 1103.05C282.06 1091.04 305.38 930.59 297.27 861.6C288.27 784.6 230.27 742.52 230.27 742.52L354.17 741.02C354.17 741.02 334.78 639.89 274.29 601.47Z" fill="#E2AD6E"/>
<path d="M356.12 740.87C356.12 740.87 366.74 643.53 302.12 595.08C297.01 591.25 282.75 595.93 274.55 597.55C271.55 598.15 270.76 601.55 272.55 604.08C315.38 665.65 316.25 718.45 313.3 749.65L356.12 740.87Z" fill="#8382D8"/>
<path d="M307.5 1134C310.924 1138.44 312.61 1143.97 312.242 1149.56C311.874 1155.16 309.476 1160.42 305.5 1164.37L260.85 1208.46C260.85 1208.46 180.98 1209.95 176.29 1208.46C171.6 1206.97 175.83 1193.63 188.83 1189.73C201.83 1185.83 219.6 1164.21 219.6 1164.21C219.6 1164.21 233.79 1149 256.94 1196.1L272.43 1182.49C272.43 1182.49 268.77 1142.35 274.82 1121.55H239C238.18 1121.56 237.367 1121.4 236.607 1121.09C235.847 1120.78 235.156 1120.33 234.573 1119.75C233.99 1119.17 233.528 1118.49 233.211 1117.73C232.895 1116.97 232.731 1116.16 232.73 1115.34C232.772 1113.78 233.422 1112.29 234.543 1111.2C235.664 1110.11 237.166 1109.5 238.73 1109.5H283.15C283.861 1109.5 284.565 1109.65 285.214 1109.94C285.864 1110.23 286.445 1110.65 286.92 1111.18L307.5 1134Z" fill="#5F3F79"/>
<path d="M639 743.73C617.33 806.41 439.11 798.14 408.73 795.93C408.735 795.887 408.735 795.843 408.73 795.8C407.38 767.72 399.16 679.12 349.33 637.1L415.47 621.1L422.89 600.31C511.8 608.08 577.61 590.47 598.78 581.15C613.38 600.57 663.14 673.87 639 743.73Z" fill="#8382D8"/>
<path d="M305.29 646.47C305.29 646.47 158.94 674.67 152.63 717.47C146.32 760.27 239 1091.5 229 1152.3C219 1213.1 153.19 1255.14 153.19 1255.14C153.19 1255.14 207.65 1265.53 236.84 1255.14C243.5 1252.76 255.59 1236.74 266.75 1230.36C277.35 1224.3 299.58 1213.83 299.18 1202.15C298.52 1182.91 270.48 1167.06 271.27 1155.05C272.06 1143.04 316.38 970.59 308.27 901.6C299.27 824.6 271.27 792.52 271.27 792.52L353.17 791.02C353.17 791.02 368.51 704.13 305.29 646.47Z" fill="#E7BF90"/>
<path d="M360.06 800.53L400.41 804.53C401.538 804.531 402.654 804.303 403.69 803.86C404.727 803.416 405.663 802.766 406.44 801.949C407.217 801.133 407.82 800.166 408.212 799.109C408.604 798.052 408.777 796.926 408.72 795.8C407.36 767.53 399.04 677.89 348.28 636.22C346.214 634.532 343.78 633.352 341.175 632.776C338.57 632.199 335.866 632.242 333.28 632.9L299.28 641.65C299.28 641.65 368 688.59 351.85 790.86C351.658 792.05 351.726 793.268 352.05 794.43C352.374 795.591 352.946 796.669 353.726 797.588C354.506 798.507 355.477 799.246 356.57 799.754C357.664 800.262 358.855 800.527 360.06 800.53V800.53Z" fill="#E5E6FF"/>
<path d="M296.4 1184.45C299.902 1188.98 301.627 1194.63 301.247 1200.34C300.868 1206.05 298.411 1211.43 294.34 1215.45L248.79 1260.45C248.79 1260.45 157.11 1261.97 152.32 1260.45C147.53 1258.93 151.85 1245.32 165.12 1241.34C178.39 1237.36 196.51 1215.34 196.51 1215.34C196.51 1215.34 221.19 1199.82 244.8 1247.87L260.61 1233.98C260.61 1233.98 256.87 1192.98 263.04 1171.81H226.48C225.643 1171.82 224.813 1171.66 224.038 1171.35C223.262 1171.03 222.557 1170.57 221.962 1169.98C221.367 1169.39 220.894 1168.69 220.571 1167.92C220.248 1167.15 220.081 1166.32 220.08 1165.48C220.119 1163.88 220.783 1162.35 221.93 1161.23C223.077 1160.11 224.616 1159.48 226.22 1159.48H271.53C272.256 1159.48 272.974 1159.63 273.637 1159.93C274.3 1160.22 274.894 1160.65 275.38 1161.19L296.4 1184.45Z" fill="#5F3F79"/>
<path d="M519.25 207.52C533.06 214.79 565.81 231.34 586.34 266.62C606.87 301.9 561.87 430.22 562.47 468.5C563.07 506.78 599.36 573.08 605.68 576.08C612 579.08 531.48 612.08 412.68 599.35C412.68 599.35 422.08 545.81 415.22 522.54C408.36 499.27 376.58 431.77 376.58 431.77C376.58 431.77 340.47 404.31 348.17 382.53C353.3 368.02 407.4 278.41 407.4 278.41L519.25 207.52Z" fill="#FF287E"/>
<path d="M639.28 399C639.28 399 602.55 442.26 535.55 442.26C535.55 442.26 481.9 269.52 543.29 247.71C604.68 225.9 639.28 399 639.28 399Z" fill="#FF6AA6"/>
<path d="M643.59 512.66C640.46 541.56 405.41 580.56 405.41 580.56L405.34 580.42C401.07 582.61 385.41 589.87 374.86 584.5C362.55 578.21 351.67 575.5 344.14 577.15C334.84 579.15 324.25 586.33 318.95 584.74C312.525 582.873 306.519 579.787 301.26 575.65C306.429 569.681 311.896 563.977 317.64 558.56C312.35 560.22 304.79 564.56 300.88 565.87C294.61 568.03 292.23 561.95 292.23 561.95C292.23 561.95 307.29 551.33 311.39 548.95C318.55 544.89 334.65 540.95 339.07 540.95C346.8 541.15 388.22 546.38 408.72 550.09C442.39 532.5 527.98 488.37 561.2 477.09L549.9 440.65C549.9 440.65 597.58 436 631.09 405.65C631.09 405.74 646.82 482.77 643.59 512.66Z" fill="#E7BF90"/>
<path d="M308 577.62C308 577.62 330.62 558.07 335.59 557.62C344.35 556.78 355.79 555.62 355.79 555.62" stroke="#E2AD6E" stroke-width="4" stroke-miterlimit="10" stroke-linecap="round"/>
<path d="M315.36 581.88C315.36 581.88 335.36 565.88 340.36 565.39C349.12 564.55 360.56 563.39 360.56 563.39" stroke="#E2AD6E" stroke-width="4" stroke-miterlimit="10" stroke-linecap="round"/>
<path d="M636.4 434.71C621.65 443.37 594.97 454.88 553.2 451.46L549.89 440.77C549.89 440.77 597.58 436.13 631.08 405.77C631.08 405.74 633.6 418 636.4 434.71Z" fill="#E2AD6E"/>
<path d="M561.44 106.22C561.44 106.22 553.72 213.76 327.69 243C327.69 243 298.2 219.05 315.69 194.88C333.18 170.71 352.54 161.82 336.02 145.44C319.5 129.06 296.42 95.11 329.76 63.82C363.1 32.53 439.31 -8.94003 494.67 21.35C550.03 51.64 482.14 107.18 561.44 106.22Z" fill="#703A2E"/>
<path d="M316.73 243.06C316.73 243.06 287.24 219.11 304.73 194.95C322.22 170.79 339.65 161.89 323.12 145.51C306.59 129.13 289.53 89.78 327.18 63.84C370.9 33.72 416.85 20.03 470.87 40.84" stroke="#603725" stroke-width="4" stroke-miterlimit="10"/>
<path d="M461 113.71C461 113.71 470.19 178.41 519.08 207.51C519.08 207.51 487.08 271.64 405.46 282.01C405.46 282.01 428.76 239.6 428.7 226.09C428.64 212.58 418 173.5 418 173.5L461 113.71Z" fill="#E7BF90"/>
<path d="M463.52 137.83C464.34 168.02 443.2 191.63 425.36 204.08C422.24 189.16 418 173.5 418 173.5L461 113.71C461.673 117.89 462.564 122.033 463.671 126.12C463.461 129.68 463.4 133.6 463.52 137.83Z" fill="#E2AD6E"/>
<path d="M456 87.05C439.36 68.05 414.25 54.61 391.39 61.95C356.24 73.25 351.57 131.46 396.7 184.3C402.05 190.56 453.99 170.96 459.25 129.36C462 107.63 456 87.05 456 87.05Z" fill="#E7BF90"/>
<path d="M458 91.19L440.58 20.3C437.45 8.21999 426 0.659989 414.12 2.88999L379.77 10.22C368.77 12.3 362.51 24.68 362.56 36.34" stroke="#71022E" stroke-width="5" stroke-miterlimit="10" stroke-linecap="round"/>
<path d="M459.254 85.7956L456.23 86.5232C444.132 89.4343 436.685 101.601 439.596 113.699L440.324 116.723C443.235 128.82 455.402 136.267 467.5 133.356L470.523 132.629C482.621 129.718 490.068 117.551 487.157 105.453L486.429 102.429C483.518 90.3317 471.351 82.8845 459.254 85.7956Z" fill="white"/>
<path d="M473.36 129.86C481.36 153.86 509.79 208.1 473.36 270.33C436.93 332.56 390.54 379.09 426.07 444.89C456.91 502.01 454.87 589.77 372.07 589.77" stroke="white" stroke-width="5" stroke-miterlimit="10" stroke-linecap="round"/>
<path d="M135.44 583.58H120.06C116.625 583.582 113.264 582.582 110.388 580.703C107.512 578.824 105.247 576.147 103.87 573L4.49015 344.63C3.3196 341.943 2.83642 339.008 3.08421 336.088C3.33199 333.168 4.30294 330.355 5.90945 327.904C7.51595 325.453 9.70744 323.441 12.2861 322.049C14.8649 320.657 17.7496 319.928 20.6801 319.93V319.93L135.44 583.58Z" fill="white" stroke="#6562CF" stroke-width="6" stroke-miterlimit="10"/>
<path d="M452.2 608.86H148.11C144.791 608.86 141.504 608.206 138.438 606.935C135.371 605.665 132.585 603.803 130.238 601.455C127.892 599.107 126.03 596.32 124.761 593.253C123.492 590.186 122.839 586.899 122.84 583.58H426.92C433.625 583.58 440.055 586.243 444.796 590.984C449.537 595.725 452.2 602.155 452.2 608.86V608.86Z" fill="white" stroke="#6562CF" stroke-width="6" stroke-miterlimit="10"/>
</g>
<defs>
<clipPath id="clip0">
<rect width="727.2" height="1263.17" fill="white"/>
</clipPath>
</defs>
</svg>
